<svg width="1400" height="1200" viewBox="0 0 1400 1200" fill="none" xmlns="http://www.w3.org/2000/svg">
  <rect width="1400" height="1200" fill="#10222B"/>
  <rect x="122" y="124" width="1156" height="952" rx="42" fill="#173441"/>
  <rect x="158" y="158" width="1084" height="884" rx="34" fill="#214956"/>
  <g opacity="0.82">
    <circle cx="292" cy="260" r="128" fill="#D9A441"/>
    <circle cx="1116" cy="254" r="174" fill="#5D9291"/>
    <circle cx="1008" cy="850" r="208" fill="#F3D8A3"/>
  </g>
  <g opacity="0.18">
    <path d="M220 873C340 742 469 674 616 685C734 694 853 772 978 769C1080 767 1165 716 1248 654V1042H220V873Z" fill="#FFF6E6"/>
    <path d="M159 649C294 550 392 511 513 521C630 531 734 604 859 604C998 604 1102 516 1242 420V1041H159V649Z" fill="#FFF6E6"/>
  </g>
  <g opacity="0.14" stroke="#FAEED4">
    <path d="M342 310C425 350 507 426 508 522C509 606 450 669 475 754C495 819 561 874 643 901"/>
    <path d="M885 212C973 257 1065 352 1066 456C1067 552 991 628 1008 712C1019 769 1061 816 1118 856"/>
  </g>
</svg>
