<svg width="1600" height="1200" viewBox="0 0 1600 1200" fill="none" xmlns="http://www.w3.org/2000/svg">
  <rect width="1600" height="1200" fill="#0F1720"/>
  <g opacity="0.95">
    <path d="M0 1080C182 974 302 957 426 1001C566 1050 658 1148 810 1140C1005 1129 1091 941 1287 914C1409 897 1512 953 1600 1036V1200H0V1080Z" fill="#153A4A"/>
    <path d="M0 926C115 842 234 826 349 868C493 921 623 1041 770 1010C906 981 1007 835 1139 792C1306 737 1456 799 1600 916V1200H0V926Z" fill="#1D5561"/>
    <path d="M0 737C154 648 274 639 419 699C540 749 671 864 824 848C991 831 1099 666 1250 631C1375 602 1498 655 1600 748V1200H0V737Z" fill="#2F7C7B"/>
  </g>
  <g opacity="0.22">
    <circle cx="235" cy="174" r="168" fill="#D9A441"/>
    <circle cx="1324" cy="214" r="220" fill="#77B0A6"/>
    <circle cx="1198" cy="930" r="270" fill="#F2D7A6"/>
    <circle cx="316" cy="960" r="192" fill="#3B6B77"/>
  </g>
  <g opacity="0.16" stroke="#F6E7C3">
    <path d="M1062 143C1143 192 1211 288 1190 381C1167 480 1055 566 1080 653C1103 729 1248 782 1265 880"/>
    <path d="M230 180C364 255 426 383 409 506C394 617 306 712 345 820C377 907 482 972 580 1008"/>
    <path d="M619 77C734 127 788 216 771 312C754 409 653 483 648 595C644 680 696 766 794 844"/>
  </g>
</svg>
